<svg xmlns="http://www.w3.org/2000/svg" width="20" height="16" viewBox="0 0 20 16"><defs><style>.cls-2{fill:#1890ff}</style></defs><g id="组_33488" data-name="组 33488" transform="translate(-330 -597)"><rect id="矩形_18839" data-name="矩形 18839" width="20" height="16" rx="2" transform="translate(330 597)" opacity=".1" fill="#1890ff"/><g id="组_33487" data-name="组 33487" transform="translate(234.938 359.571)"><path id="路径_20510" data-name="路径 20510" class="cls-2" d="M99.315 242.791a2.267 2.267 0 1 0 2.17-2.36h-.053a2.406 2.406 0 0 0-2.117 2.36z"/><path id="路径_20511" data-name="路径 20511" class="cls-2" d="M106.063 250.114v-1.265c0-1.682-3-2.525-4.5-2.525s-4.5.843-4.5 2.526v1.265a.4.4 0 0 0 .375.421h8.247a.4.4 0 0 0 .375-.421z"/><path id="矩形_18840" data-name="矩形 18840" class="cls-2" transform="translate(109.063 243.798)" d="M0 0h3v.843H0z"/><path id="矩形_18841" data-name="矩形 18841" class="cls-2" transform="translate(106.063 242.116)" d="M0 0h6v.843H0z"/><path id="矩形_18842" data-name="矩形 18842" class="cls-2" transform="translate(106.063 240.43)" d="M0 0h6v.843H0z"/></g></g></svg>
